#!OML:ASF F:\VICON\USERDATA\INSTALL\rory3\rory3.ASF
:FULLY-SPECIFIED
:DEGREES
91
root 0.5270991745534577 18.914019861858247 10.846240294186432 14.157323150641488 7.238614939600561 -1.810323075932647
lfemur -12.557891034419447 5.621234503760567 -16.8478204518081
ltibia 14.360159035557514
lfoot -3.0097267028065335 0.042911250472347895
ltoes -10.830536315189493
rfemur -11.15706247784807 -6.219487520881058 21.061414263752123
rtibia 21.962993373479176
rfoot -12.040631918192679 0.6767245256380665
rtoes 12.753240204224756
lowerback -7.08451928515518 -0.17508838124873394 1.1249820406473248
upperback -0.07896895182655284 -0.29557118616428935 2.121584381471247
thorax -1.9377353501209011 -0.13432719895009154 1.3143067408311764
lowerneck -11.128344719016049 -3.6795462696923744 -2.542314121399518
upperneck 16.388703547624832 -5.213240504752669 2.5138349857476356
head 7.299248852836954 -2.379873114135019 0.8052400047321729
lclavicle 1.8607986828683226e-16 -2.354460759649036e-15
lhumerus -20.277694533502917 -4.607076879890661 86.50183857662203
lradius 19.12627211244406
lwrist 5.691673600804688
lhand -24.5052387911563 -6.029333308798238
lfingers 7.12502
lthumb 2.413832928455179 24.29054856402592
rclavicle 1.8658648274638607e-16 -2.3542046943002755e-15
rhumerus -25.90114474717726 -18.134194653850063 -74.92950976241193
rradius 23.908160690751615
rwrist 37.94036569491991
rhand -20.996441036847273 -26.753490909739313
rfingers 7.12502
rthumb 4.256965576802302 -56.498827718410176
92
root 0.5172408840368466 18.87705371971982 10.810970475161577 14.270610959821376 7.330935789167771 -1.7888448810443092
lfemur -12.889734117448839 5.951102179363944 -16.985662665913118
ltibia 14.632443361454722
lfoot -3.152755602871082 0.08687959778406906
ltoes -11.054413396034805
rfemur -11.624768169159495 -6.35623204415577 21.15950825038195
rtibia 23.4290511915274
rfoot -12.30104562120367 0.7020100331817245
rtoes 12.597913043338039
lowerback -7.320195456714416 -0.20132559679441 1.0897235595150938
upperback -0.08946812610606347 -0.33806098259137196 2.0391239058729558
thorax -2.0210508018130136 -0.16012043022043812 1.3117706898952777
lowerneck -11.341090941256658 -3.6605968310192187 -2.5348608360350324
upperneck 16.100340162063738 -5.16402093798956 2.497050748933389
head 7.183733728742979 -2.3245833678499612 0.7888833914002353
lclavicle 1.871482682045118e-16 -2.3527699463701995e-15
lhumerus -21.401407462544608 -3.6014389485097045 86.28550168801473
lradius 17.93536630612769
lwrist 3.216932630980467
lhand -24.18659847268459 -5.82174176600445
lfingers 7.12502
lthumb 2.6426926040516387 24.46557375747404
rclavicle 1.8689885521769788e-16 -2.353710330935426e-15
rhumerus -25.25829104844128 -17.628698860069754 -75.29064621650957
rradius 24.3747650201904
rwrist 37.102928711900105
rhand -20.949873252186254 -26.703994741188158
rfingers 7.12502
rthumb 4.383695114369903 -56.478479263019
93
root 0.5085196374708603 18.852417303950368 10.776335752491244 14.312253447987555 7.344202790659546 -1.6889022358852168
lfemur -13.48156393143549 6.345569244831841 -17.207212067193574
ltibia 15.420989573862215
lfoot -3.3704990888010675 0.11385074808665063
ltoes -10.984286602432203
rfemur -12.508170812508505 -6.456348804641566 21.226293213536636
rtibia 25.193817853719615
rfoot -12.673662762988062 0.6861368263961749
rtoes 12.449737116830756
lowerback -7.373983237881221 -0.1983161580853316 1.0381846613303751
upperback -0.05398323271749916 -0.32608324288267276 1.932009141920887
thorax -2.1585267922340914 -0.15299487047317992 1.2945705588541618
lowerneck -11.516291610060687 -3.6701058323629265 -2.523603390685642
upperneck 15.695556247142589 -5.1380654493215845 2.4698685989465203
head 7.031173778777599 -2.307115680536812 0.7668838123767789
lclavicle 1.8697286896262019e-16 -2.353003577885705e-15
lhumerus -22.51305614758969 -2.5580751891823974 85.76733328693997
lradius 16.78183274800496
lwrist 0.7254362109188532
lhand -23.93014204126562 -5.689518830323443
lfingers 7.12502
lthumb 2.814408863534615 24.50549120872115
rclavicle 1.8649650980365095e-16 -2.3543504518643355e-15
rhumerus -24.893408865652916 -17.463040315351115 -75.4146785838189
rradius 24.685458253247134
rwrist 36.300545193878285
rhand -20.913400308175344 -26.699218767926567
rfingers 7.12502
rthumb 4.501960126331081 -56.47896690289997
94
root 0.4998043415357461 18.81181811235448 10.821754492571776 14.526245370471063 7.3057704078335615 -1.6796547156504367
lfemur -14.295405262061454 6.7217638324405655 -17.335990365295203
ltibia 16.79585850636019
lfoot -3.7728409149438527 0.17551418071915936
ltoes -10.73683308469173
rfemur -13.405871186095208 -6.509769910911926 21.345019047940337
rtibia 26.83421462280208
rfoot -13.219558250828252 0.5634607969108152
rtoes 12.060181654364808
lowerback -7.294824542255727 -0.1652217610718474 1.0301973311381434
upperback -0.01420725208019169 -0.2721933508245699 1.8473839067623175
thorax -2.2329331507816836 -0.1268410728544773 1.2663801473203653
lowerneck -11.668058754132515 -3.6592690885252352 -2.498876224206424
upperneck 15.161299069180103 -5.075177480104817 2.4286811484765507
head 6.827318663353346 -2.2891427385290144 0.7473199858406079
lclavicle 1.86833557926339e-16 -2.3532399709021484e-15
lhumerus -23.499729895532923 -1.5326121876845435 84.99847055678623
lradius 15.698219880221483
lwrist -1.8308686175552245
lhand -23.694859483646844 -5.588083036715886
lfingers 7.12502
lthumb 2.9340836651162174 24.453268291804374
rclavicle 1.865568096781493e-16 -2.3542552444420357e-15
rhumerus -24.82935972972296 -17.472339701927584 -75.3562712533677
rradius 24.87332393057263
rwrist 35.743043784454805
rhand -20.933566092828784 -26.709785028030918
rfingers 7.12502
rthumb 4.659687142476905 -56.42648210694892
